<?xml version="1.0" encoding="utf-8"?>
<!-- Generated by IcoMoon.io -->
<!DOCTYPE svg PUBLIC "-//W3C//DTD SVG 1.1//EN" "http://www.w3.org/Graphics/SVG/1.1/DTD/svg11.dtd">
<svg version="1.1" xmlns="http://www.w3.org/2000/svg" xmlns:xlink="http://www.w3.org/1999/xlink" width="32" height="32" viewBox="0 0 32 32">
<g id="icomoon-ignore">
</g>
<path d="M16 0c-8.825 0-16 7.175-16 16s7.175 16 16 16c8.825 0 16-7.175 16-16s-7.175-16-16-16zM16.425 24.85c-1.175 1.225-2.575 1.85-4.225 1.85-1.675 0-3.075-0.6-4.25-1.825s-1.75-2.7-1.75-4.425v-8.825c0-0.6 0.175-1.050 0.525-1.375s0.775-0.475 1.25-0.475c0.475 0 0.9 0.15 1.25 0.475s0.525 0.775 0.525 1.375v8.825c0 0.725 0.25 1.325 0.725 1.825s1.050 0.75 1.725 0.75c0.65 0 1.225-0.25 1.725-0.75 0.475-0.5 0.725-1.125 0.725-1.825 0-0.725-0.225-1.275-0.675-1.675s-1.050-0.6-1.8-0.6c-0.55 0-0.975-0.2-1.3-0.575-0.3-0.325-0.45-0.725-0.45-1.225 0-0.475 0.15-0.9 0.475-1.25 0.3-0.35 0.75-0.55 1.3-0.55 1.75 0 3.175 0.55 4.3 1.65s1.7 2.5 1.7 4.225c-0.025 1.7-0.625 3.175-1.775 4.4zM20.4 19.075c0-1.8-0.7-3.475-1.95-4.75s-2.925-1.975-4.725-1.975v-2.75c5.2 0 9.425 4.25 9.425 9.45h-2.75zM25.25 19.075c0-6.4-5.175-11.575-11.525-11.575v-2.75c7.875 0 14.275 6.425 14.275 14.325h-2.75z" fill="#f97e04"></path>
</svg>
