<?xml version="1.0" encoding="utf-8"?>
<!-- Generator: Adobe Illustrator 17.0.0, SVG Export Plug-In . SVG Version: 6.00 Build 0)  -->
<!DOCTYPE svg PUBLIC "-//W3C//DTD SVG 1.1//EN" "http://www.w3.org/Graphics/SVG/1.1/DTD/svg11.dtd">
<svg version="1.1" id="Layer_1" xmlns="http://www.w3.org/2000/svg" xmlns:xlink="http://www.w3.org/1999/xlink" x="0px" y="0px"
	 width="156px" height="132px" viewBox="0 0 156 132" enable-background="new 0 0 156 132" xml:space="preserve">
<g>
	<path fill="#1369B3" d="M127.934,0L127.934,0c0,0-0.36,0-0.361,0c-8.84,0-18.474,1.591-26.873,6.608
		C80.132,18.894,73.959,47.545,72.899,53.359c-2.344,2.357-4.604,4.844-6.753,7.477c0.453-6.901,0.246-21.655-8.337-31.378
		C47.772,18.087,29.592,17.353,25.068,17.353c-0.67,0-1.041,0.016-1.041,0.016s-3.575,22.136,7.949,35.192
		c8.757,9.921,23.71,11.744,30.387,12.048c0.03,0.058,0.065,0.115,0.094,0.174c0.087,0.17,0.195,0.321,0.318,0.454
		c-4.592,6.32-8.58,13.376-11.698,21.283c-9.229,23.402-6.52,42.783-6.4,43.597c0.147,0.997,0.999,1.713,1.971,1.713
		c0.096,0,0.195-0.007,0.294-0.022c1.089-0.162,1.842-1.182,1.682-2.28c-0.027-0.19-2.666-19.285,6.234-41.713
		c4.782-12.049,12.015-22.849,21.507-32.241c4.897,1.413,14.196,3.615,24.599,3.615c8.84,0,18.474-1.591,26.872-6.608
		C150.786,38.873,156,4.773,156,4.773S142.927,0,127.934,0z M41.521,38.774c7.62,6.497,13.815,13.764,18.503,21.64
		c-6.709-0.609-18.245-2.794-25.066-10.522c-7.583-8.591-7.738-22.145-7.332-28.447c6.093,0.331,19.591,2.059,27.201,10.681
		c6.195,7.018,7.431,17.344,7.455,24.327c-4.759-7.524-10.84-14.485-18.184-20.746c-0.84-0.717-2.099-0.613-2.812,0.235
		C40.575,36.789,40.679,38.057,41.521,38.774z M125.831,49.126c-6.715,4.011-15.086,6.045-24.851,6.045
		c-8.438,0-16.186-1.545-21.173-2.83c13.451-12.166,30.92-21.764,51.967-28.395c1.051-0.331,1.635-1.458,1.307-2.517
		c-0.33-1.059-1.449-1.645-2.502-1.317c-16.533,5.208-36.1,13.918-52.478,28.348c2.646-10.121,9.687-29.341,24.85-38.398
		C109.665,6.052,118,3.932,128,3.932v0.085c10,0,18.815,2.169,23.429,3.505C149.518,16.114,142.8,38.989,125.831,49.126z"/>
	<path fill="#1369B3" d="M25.741,81.821c2.547-2.023,4.187-5.151,4.187-8.671c0-6.102-4.913-11.048-10.974-11.048
		c-6.061,0-10.974,4.946-10.974,11.048c0,3.519,1.64,6.648,4.187,8.671C7.002,83.479,2.678,86.967,0,91.516
		c3.785,6.431,10.853,10.761,18.955,10.761c8.101,0,15.169-4.33,18.954-10.761C35.232,86.967,30.908,83.479,25.741,81.821z
		 M11.971,73.15c0-3.877,3.133-7.031,6.983-7.031c3.851,0,6.983,3.154,6.983,7.031s-3.133,7.031-6.983,7.031
		C15.104,80.181,11.971,77.027,11.971,73.15z M18.955,98.26c-5.535,0-10.743-2.534-14.11-6.744c3.367-4.21,8.575-6.744,14.11-6.744
		s10.743,2.534,14.11,6.744C29.697,95.726,24.49,98.26,18.955,98.26z"/>
	<path fill="#1369B3" d="M87.593,102.913c2.547-2.023,4.187-5.151,4.187-8.671c0-6.102-4.913-11.048-10.974-11.048
		c-6.061,0-10.974,4.946-10.974,11.048c0,3.519,1.64,6.648,4.187,8.671c-5.166,1.658-9.49,5.146-12.168,9.695
		c3.785,6.431,10.853,10.761,18.955,10.761c8.101,0,15.169-4.33,18.954-10.761C97.083,108.059,92.759,104.571,87.593,102.913z
		 M73.823,94.242c0-3.877,3.133-7.031,6.983-7.031c3.851,0,6.983,3.154,6.983,7.031s-3.133,7.031-6.983,7.031
		C76.956,101.273,73.823,98.119,73.823,94.242z M80.806,119.352c-5.535,0-10.743-2.534-14.11-6.744
		c3.367-4.21,8.575-6.744,14.11-6.744s10.743,2.534,14.11,6.744C91.549,116.818,86.341,119.352,80.806,119.352z"/>
</g>
</svg>
