<?xml version="1.0" encoding="utf-8"?>
<!-- Generator: Adobe Illustrator 17.0.0, SVG Export Plug-In . SVG Version: 6.00 Build 0)  -->
<!DOCTYPE svg PUBLIC "-//W3C//DTD SVG 1.1//EN" "http://www.w3.org/Graphics/SVG/1.1/DTD/svg11.dtd">
<svg version="1.1" id="Layer_1" xmlns="http://www.w3.org/2000/svg" xmlns:xlink="http://www.w3.org/1999/xlink" x="0px" y="0px"
	 width="138px" height="135px" viewBox="0 0 138 135" enable-background="new 0 0 138 135" xml:space="preserve">
<g>
	<path fill="#1369B3" d="M43.151,114.292C22.579,103.905,11.25,86.577,11.25,65.5c0-1.104-0.896-2-2-2s-2,0.896-2,2
		c0,22.664,12.109,41.259,34.099,52.362c0.289,0.146,0.597,0.215,0.899,0.215c0.731,0,1.436-0.402,1.787-1.099
		C44.533,115.993,44.138,114.79,43.151,114.292z"/>
	<path fill="#1369B3" d="M30.908,19C41.507,9.649,55.124,4.5,69.25,4.5S96.993,9.649,107.592,19c0.381,0.335,0.853,0.5,1.322,0.5
		c0.554,0,1.105-0.229,1.501-0.677c0.73-0.829,0.651-2.092-0.177-2.823C98.907,6.005,84.351,0.5,69.25,0.5S39.593,6.005,28.262,16
		c-0.828,0.731-0.907,1.995-0.177,2.823C28.814,19.649,30.079,19.729,30.908,19z"/>
	<path fill="#1369B3" d="M129.25,63.5c-1.104,0-2,0.896-2,2c0,21.728-12.332,39.851-33.835,49.724
		c-1.003,0.461-1.443,1.648-0.982,2.652c0.337,0.733,1.062,1.166,1.818,1.166c0.279,0,0.563-0.059,0.834-0.183
		c22.983-10.553,36.165-30.001,36.165-53.358C131.25,64.396,130.354,63.5,129.25,63.5z"/>
	<path fill="#1369B3" d="M75.803,114.633C78.356,112.619,80,109.504,80,106c0-6.075-4.925-11-11-11c-6.075,0-11,4.925-11,11
		c0,3.504,1.644,6.619,4.197,8.633c-5.178,1.651-9.513,5.124-12.197,9.653C53.795,130.689,60.88,135,69,135
		c8.12,0,15.205-4.311,19-10.714C85.316,119.757,80.982,116.284,75.803,114.633z M62,106c0-3.86,3.14-7,7-7c3.86,0,7,3.14,7,7
		s-3.14,7-7,7C65.14,113,62,109.86,62,106z M69,131c-5.548,0-10.769-2.523-14.144-6.714c3.375-4.192,8.596-6.714,14.144-6.714
		s10.769,2.523,14.144,6.714C79.769,128.477,74.548,131,69,131z"/>
	<path fill="#1369B3" d="M38,49.286c-2.684-4.529-7.018-8.002-12.197-9.653C28.356,37.619,30,34.504,30,31c0-6.075-4.925-11-11-11
		c-6.075,0-11,4.925-11,11c0,3.504,1.644,6.619,4.197,8.633C7.018,41.284,2.684,44.757,0,49.286C3.795,55.689,10.88,60,19,60
		C27.121,60,34.206,55.689,38,49.286z M12,31c0-3.86,3.14-7,7-7c3.86,0,7,3.14,7,7s-3.14,7-7,7C15.14,38,12,34.86,12,31z
		 M4.856,49.286c3.375-4.192,8.596-6.714,14.144-6.714s10.769,2.523,14.144,6.714C29.769,53.477,24.548,56,19,56
		S8.232,53.477,4.856,49.286z"/>
	<path fill="#1369B3" d="M125.803,39.633C128.356,37.619,130,34.504,130,31c0-6.075-4.925-11-11-11c-6.075,0-11,4.925-11,11
		c0,3.504,1.644,6.619,4.197,8.633c-5.178,1.651-9.513,5.124-12.197,9.653C103.795,55.689,110.88,60,119,60
		c8.12,0,15.205-4.311,19-10.714C135.316,44.757,130.982,41.284,125.803,39.633z M112,31c0-3.86,3.14-7,7-7c3.86,0,7,3.14,7,7
		s-3.14,7-7,7C115.14,38,112,34.86,112,31z M119,56c-5.548,0-10.769-2.523-14.144-6.714c3.375-4.192,8.596-6.714,14.144-6.714
		s10.769,2.523,14.144,6.714C129.769,53.477,124.548,56,119,56z"/>
</g>
</svg>
