<?xml version="1.0" encoding="utf-8"?>
<!-- Generator: Adobe Illustrator 17.0.0, SVG Export Plug-In . SVG Version: 6.00 Build 0)  -->
<!DOCTYPE svg PUBLIC "-//W3C//DTD SVG 1.1//EN" "http://www.w3.org/Graphics/SVG/1.1/DTD/svg11.dtd">
<svg version="1.1" id="Layer_1" xmlns="http://www.w3.org/2000/svg" xmlns:xlink="http://www.w3.org/1999/xlink" x="0px" y="0px"
	 width="117px" height="99px" viewBox="0 0 117 99" enable-background="new 0 0 117 99" xml:space="preserve">
<g>
	<path fill="#1369B3" d="M113,52h-2V36.531c0-2.491-1.438-4.705-3.491-6.258l1.254-4.255c0.659-2.442-0.097-4.924-1.762-6.605
		v-4.981C107,11.149,102.787,9,100,9H71.575L38.644,0.236C38.043,0.076,37.44,0,36.847,0c-3.058,0-5.856,2.027-6.685,5.1L29.11,9H12
		C12,9,0,8.867,0,27.933s0,53.304,0,53.304C0,90.733,7.421,99,17,99h85c4.789,0,9-4.417,9-9.165V74h2c2.209,0,4-1.788,4-3.994
		V55.994C117,53.788,115.209,52,113,52z M100,13c1.185,0,2.858,0.964,3,1.432v2.931L86.605,13C94.63,13,100,13,100,13z
		 M34.024,6.141C34.364,4.881,35.525,4,36.847,4c0.256,0,0.515,0.034,0.768,0.102l65.221,17.357
		c0.057,0.015,0.108,0.043,0.164,0.061v6.696c-0.664-0.137-1.335-0.216-2-0.216c0,0-54.791,0-72.873,0L34.024,6.141z M15,13
		c0.919,0,5.905,0,13.031,0l-4.047,15c-0.398,0-0.733,0-0.984,0c-7.222,0-13-1.828-13-8C10,16.574,10.999,13,15,13z M107,89.835
		c0,2.607-2.477,5.165-5,5.165H17C9.832,95,4,88.826,4,81.237V27.933c0-4.11,0.816-7.396,2.434-9.822
		c-0.027,0.776-0.027,1.484-0.027,2.084c0,4.415,1.981,7.79,5.729,9.758C14.793,31.35,18.245,32,23,32h78c2.916,0,6,2.329,6,4.531
		V52H92c-2.209,0-4,1.788-4,3.994v14.012C88,72.212,89.791,74,92,74h15V89.835z M113,70l-21,0.006V56h21V70z"/>
</g>
</svg>
