<?xml version="1.0" encoding="utf-8"?>
<!-- Generator: Adobe Illustrator 17.0.0, SVG Export Plug-In . SVG Version: 6.00 Build 0)  -->
<!DOCTYPE svg PUBLIC "-//W3C//DTD SVG 1.1//EN" "http://www.w3.org/Graphics/SVG/1.1/DTD/svg11.dtd">
<svg version="1.1" id="Layer_1" xmlns="http://www.w3.org/2000/svg" xmlns:xlink="http://www.w3.org/1999/xlink" x="0px" y="0px"
	 width="103px" height="128px" viewBox="0 0 103 128" enable-background="new 0 0 103 128" xml:space="preserve">
<g>
	<path fill="#1369B3" d="M51.525,80.243c22.091,0,40-17.963,40-40.121C91.525,17.963,73.616,0,51.525,0
		c-22.091,0-40,17.963-40,40.122C11.525,62.28,29.434,80.243,51.525,80.243z M51.525,4.012c19.85,0,36,16.199,36,36.11
		c0,19.911-16.15,36.109-36,36.109s-36-16.199-36-36.109C15.525,20.211,31.675,4.012,51.525,4.012z"/>
	<path fill="#1369B3" d="M46.15,50.621C45.117,49.518,44.617,48,44.65,46H37.6c0.333,4,1.549,7.046,3.65,9.085
		c2.1,2.04,4.75,3.3,8.75,3.568V63h3v-4.347c2-0.167,4.526-0.669,6.125-1.505c1.6-0.835,2.862-1.788,3.813-2.858
		c0.95-1.07,1.601-2.165,1.968-3.285c0.366-1.12,0.547-2.047,0.547-2.783c0-0.835-0.06-1.788-0.176-2.859
		c-0.117-1.07-0.493-2.139-1.126-3.209c-0.634-1.07-1.618-2.098-2.951-3.085c-1.333-0.986-3.234-1.813-5.699-2.483
		c-0.468-0.133-0.884-0.251-1.3-0.351C53.784,36.135,53,36.034,53,35.934v-8.877c1,0,2.076,0.533,2.875,1.469
		C56.675,29.462,57.067,31,57.1,32h7.1c-0.1-2-0.467-3.307-1.1-4.578c-0.634-1.27-1.45-2.364-2.45-3.217
		c-1-0.852-2.133-1.537-3.45-2.022C55.883,21.699,54,21.357,53,21.19V18h-3v3.19c-2,0.1-2.95,0.393-4.35,0.878
		c-1.399,0.485-2.634,1.171-3.7,2.056c-1.066,0.886-1.925,1.981-2.574,3.285c-0.65,1.304-0.976,2.809-0.976,4.514
		c0,1.673,0.283,3.068,0.851,4.188c0.566,1.121,1.324,2.056,2.274,2.808s2.025,1.354,3.226,1.805
		c1.199,0.452,2.416,0.845,3.649,1.179c0.333,0.067,0.641,0.143,0.924,0.226C49.608,42.212,50,42.287,50,42.353v10.482
		C48,52.534,47.183,51.725,46.15,50.621z M53,43.206c2,0.535,3.333,1.128,4.151,1.78c0.816,0.652,1.212,1.63,1.212,2.934
		c0,0.802-0.173,1.497-0.506,2.081c-0.334,0.586-0.762,1.078-1.279,1.48s-1.076,0.711-1.727,0.928
		C54.202,52.626,54,52.768,53,52.835V43.206z M46.55,33.777c-0.7-0.602-1.05-1.455-1.05-2.558c0-0.702,0.125-1.312,0.375-1.831
		c0.25-0.518,0.591-0.953,1.024-1.304c0.433-0.351,0.917-0.61,1.45-0.778c0.533-0.167,0.65-0.251,1.65-0.251v8.175
		C48,34.864,47.25,34.379,46.55,33.777z"/>
	<path fill="#1369B3" d="M58.328,107.571c2.553-2.021,4.197-5.145,4.197-8.659c0-6.094-4.925-11.033-11-11.033
		c-6.075,0-11,4.94-11,11.033c0,3.515,1.644,6.639,4.197,8.659c-5.178,1.656-9.513,5.139-12.197,9.682
		c3.795,6.423,10.88,10.747,19,10.747c8.12,0,15.205-4.324,19-10.747C67.841,112.71,63.507,109.227,58.328,107.571z M44.525,98.912
		c0-3.872,3.14-7.021,7-7.021c3.86,0,7,3.15,7,7.021s-3.14,7.021-7,7.021C47.665,105.933,44.525,102.783,44.525,98.912z
		 M51.525,123.988c-5.548,0-10.769-2.53-14.144-6.735c3.375-4.204,8.596-6.735,14.144-6.735s10.769,2.53,14.144,6.735
		C62.294,121.458,57.073,123.988,51.525,123.988z"/>
	<path fill="#1369B3" d="M38,107.223c-2.684-4.543-7.018-8.026-12.197-9.682C28.356,95.52,30,92.396,30,88.882
		c0-6.094-4.925-11.033-11-11.033c-6.075,0-11,4.94-11,11.033c0,3.515,1.644,6.639,4.197,8.659C7.018,99.196,2.684,102.68,0,107.223
		c3.795,6.423,10.88,10.747,19,10.747C27.121,117.97,34.206,113.645,38,107.223z M12,88.882c0-3.872,3.14-7.021,7-7.021
		c3.86,0,7,3.15,7,7.021s-3.14,7.021-7,7.021C15.14,95.903,12,92.753,12,88.882z M19,113.957c-5.548,0-10.769-2.53-14.144-6.735
		c3.375-4.204,8.596-6.735,14.144-6.735s10.769,2.53,14.144,6.735C29.769,111.427,24.548,113.957,19,113.957z"/>
	<path fill="#1369B3" d="M90.803,97.541C93.356,95.52,95,92.396,95,88.882c0-6.094-4.925-11.033-11-11.033
		c-6.075,0-11,4.94-11,11.033c0,3.515,1.644,6.639,4.197,8.659c-5.178,1.656-9.513,5.139-12.197,9.682
		c3.795,6.423,10.88,10.747,19,10.747c8.12,0,15.205-4.324,19-10.747C100.316,102.68,95.982,99.196,90.803,97.541z M77,88.882
		c0-3.872,3.14-7.021,7-7.021c3.86,0,7,3.15,7,7.021s-3.14,7.021-7,7.021C80.14,95.903,77,92.753,77,88.882z M84,113.957
		c-5.548,0-10.769-2.53-14.144-6.735c3.375-4.204,8.596-6.735,14.144-6.735s10.769,2.53,14.144,6.735
		C94.769,111.427,89.548,113.957,84,113.957z"/>
</g>
</svg>
