<?xml version="1.0" encoding="utf-8"?>
<!-- Generator: Adobe Illustrator 15.0.2, SVG Export Plug-In . SVG Version: 6.00 Build 0)  -->
<!DOCTYPE svg PUBLIC "-//W3C//DTD SVG 1.1//EN" "http://www.w3.org/Graphics/SVG/1.1/DTD/svg11.dtd">
<svg version="1.1" xmlns="http://www.w3.org/2000/svg" xmlns:xlink="http://www.w3.org/1999/xlink" x="0px" y="0px" width="103px"
	 height="128px" viewBox="0 0 103 128" enable-background="new 0 0 103 128" xml:space="preserve">
<g id="Layer_1">
	<g>
		<path fill="#1369B3" d="M51.525,80.243c22.091,0,40-17.963,40-40.121C91.525,17.963,73.616,0,51.525,0
			c-22.091,0-40,17.963-40,40.122C11.525,62.28,29.434,80.243,51.525,80.243z M51.525,4.012c19.85,0,36,16.199,36,36.11
			s-16.15,36.108-36,36.108s-36-16.198-36-36.108C15.525,20.211,31.675,4.012,51.525,4.012z"/>
		<path fill="#1369B3" d="M58.328,107.57c2.553-2.021,4.197-5.145,4.197-8.658c0-6.094-4.926-11.033-11-11.033s-11,4.939-11,11.033
			c0,3.515,1.644,6.639,4.197,8.658c-5.178,1.656-9.513,5.14-12.197,9.683c3.795,6.423,10.88,10.747,19,10.747
			c8.12,0,15.206-4.324,19-10.747C67.841,112.71,63.507,109.227,58.328,107.57z M44.525,98.912c0-3.872,3.14-7.021,7-7.021
			s7,3.15,7,7.021s-3.141,7.021-7,7.021S44.525,102.783,44.525,98.912z M51.525,123.988c-5.548,0-10.769-2.53-14.144-6.735
			c3.375-4.204,8.596-6.735,14.144-6.735c5.548,0,10.769,2.53,14.144,6.735C62.294,121.458,57.073,123.988,51.525,123.988z"/>
		<path fill="#1369B3" d="M38,107.223c-2.684-4.543-7.018-8.025-12.197-9.682C28.356,95.52,30,92.396,30,88.882
			c0-6.094-4.925-11.032-11-11.032S8,82.789,8,88.882c0,3.515,1.644,6.64,4.197,8.659C7.018,99.195,2.684,102.68,0,107.223
			c3.795,6.424,10.88,10.748,19,10.748C27.121,117.971,34.206,113.645,38,107.223z M12,88.882c0-3.872,3.14-7.021,7-7.021
			s7,3.15,7,7.021c0,3.871-3.14,7.021-7,7.021S12,92.753,12,88.882z M19,113.957c-5.548,0-10.769-2.53-14.144-6.734
			c3.375-4.205,8.596-6.736,14.144-6.736s10.769,2.531,14.144,6.736C29.769,111.427,24.548,113.957,19,113.957z"/>
		<path fill="#1369B3" d="M90.803,97.541C93.355,95.52,95,92.396,95,88.882c0-6.094-4.925-11.032-11-11.032s-11,4.939-11,11.032
			c0,3.515,1.645,6.64,4.197,8.659c-5.178,1.656-9.514,5.139-12.197,9.682c3.795,6.424,10.88,10.748,19,10.748
			s15.205-4.324,19-10.748C100.316,102.68,95.982,99.195,90.803,97.541z M77,88.882c0-3.872,3.141-7.021,7-7.021s7,3.15,7,7.021
			c0,3.871-3.141,7.021-7,7.021S77,92.753,77,88.882z M84,113.957c-5.548,0-10.77-2.53-14.145-6.734
			c3.375-4.205,8.597-6.736,14.145-6.736s10.77,2.531,14.145,6.736C94.77,111.427,89.548,113.957,84,113.957z"/>
	</g>
	<path fill="#1369B3" d="M63.848,20.425l-1.211,5.442c-2.407-1.971-5.128-2.958-8.164-2.958c-4.121,0-7.359,1.184-9.716,3.549
		c-2.356,2.366-3.771,5.019-4.244,7.957h20.171l-0.769,3.993H40.039l-0.059,1.153l0.059,2.721h19.018l-0.77,3.993H40.661
		c0.749,4.003,2.371,6.946,4.865,8.828c2.494,1.884,5.309,2.825,8.444,2.825c3.707,0,6.595-0.977,8.667-2.928v6.123
		c-2.446,1.143-5.167,1.714-8.164,1.714c-10.884,0-17.45-5.521-19.698-16.562H30.22l0.857-3.993h3.076
		c-0.039-0.473-0.059-1.361-0.059-2.663v-1.212H30.22l0.857-3.993h3.46c1.025-5.442,3.402-9.539,7.128-12.29
		C45.393,19.375,49.701,18,54.591,18C58.258,18,61.346,18.809,63.848,20.425z"/>
</g>
<g id="left_shoe">
</g>
</svg>
