<?xml version="1.0" encoding="utf-8"?>
<!-- Generator: Adobe Illustrator 18.1.0, SVG Export Plug-In . SVG Version: 6.00 Build 0)  -->
<svg version="1.1" id="Layer_1" xmlns="http://www.w3.org/2000/svg" xmlns:xlink="http://www.w3.org/1999/xlink" x="0px" y="0px"
	 viewBox="-428 837 103 128" enable-background="new -428 837 103 128" xml:space="preserve">
<g>
	<path fill="#1369B3" d="M-376.5,917.2c22.1,0,40-18,40-40.1c0-22.2-17.9-40.1-40-40.1s-40,18-40,40.1
		C-416.5,899.3-398.6,917.2-376.5,917.2z M-376.5,841c19.9,0,36,16.2,36,36.1s-16.1,36.1-36,36.1s-36-16.2-36-36.1
		C-412.5,857.2-396.3,841-376.5,841z"/>
	<path fill="#1369B3" d="M-369.7,944.6c2.6-2,4.2-5.1,4.2-8.7c0-6.1-4.9-11-11-11c-6.1,0-11,4.9-11,11c0,3.5,1.6,6.6,4.2,8.7
		c-5.2,1.7-9.5,5.1-12.2,9.7c3.8,6.4,10.9,10.7,19,10.7s15.2-4.3,19-10.7C-360.2,949.7-364.5,946.2-369.7,944.6z M-383.5,935.9
		c0-3.9,3.1-7,7-7c3.9,0,7,3.2,7,7c0,3.9-3.1,7-7,7C-380.3,942.9-383.5,939.8-383.5,935.9z M-376.5,961c-5.5,0-10.8-2.5-14.1-6.7
		c3.4-4.2,8.6-6.7,14.1-6.7s10.8,2.5,14.1,6.7C-365.7,958.5-370.9,961-376.5,961z"/>
	<path fill="#1369B3" d="M-390,944.2c-2.7-4.5-7-8-12.2-9.7c2.6-2,4.2-5.1,4.2-8.7c0-6.1-4.9-11-11-11s-11,4.9-11,11
		c0,3.5,1.6,6.6,4.2,8.7c-5.2,1.7-9.5,5.1-12.2,9.7c3.8,6.4,10.9,10.7,19,10.7C-400.9,955-393.8,950.6-390,944.2z M-416,925.9
		c0-3.9,3.1-7,7-7s7,3.1,7,7c0,3.9-3.1,7-7,7S-416,929.8-416,925.9z M-409,951c-5.5,0-10.8-2.5-14.1-6.7c3.4-4.2,8.6-6.7,14.1-6.7
		s10.8,2.5,14.1,6.7C-398.2,948.4-403.5,951-409,951z"/>
	<path fill="#1369B3" d="M-337.2,934.5c2.6-2,4.2-5.1,4.2-8.7c0-6.1-4.9-11-11-11s-11,4.9-11,11c0,3.5,1.6,6.6,4.2,8.7
		c-5.2,1.7-9.5,5.1-12.2,9.7c3.8,6.4,10.9,10.7,19,10.7s15.2-4.3,19-10.7C-327.7,939.7-332,936.2-337.2,934.5z M-351,925.9
		c0-3.9,3.1-7,7-7s7,3.1,7,7c0,3.9-3.1,7-7,7S-351,929.8-351,925.9z M-344,951c-5.5,0-10.8-2.5-14.1-6.7c3.4-4.2,8.6-6.7,14.1-6.7
		s10.8,2.5,14.1,6.7C-333.2,948.4-338.5,951-344,951z"/>
</g>
<text transform="matrix(1 0 0 1 -393.9302 890.4849)" fill="#1369B3" font-family="'HelveticaNeue-Medium'" font-size="53.0295">₫</text>
</svg>
