<?xml version="1.0" encoding="utf-8"?>
<!-- Generator: Adobe Illustrator 17.0.0, SVG Export Plug-In . SVG Version: 6.00 Build 0)  -->
<!DOCTYPE svg PUBLIC "-//W3C//DTD SVG 1.1//EN" "http://www.w3.org/Graphics/SVG/1.1/DTD/svg11.dtd">
<svg version="1.1" id="Layer_1" xmlns="http://www.w3.org/2000/svg" xmlns:xlink="http://www.w3.org/1999/xlink" x="0px" y="0px"
	 width="158px" height="138px" viewBox="0 0 158 138" enable-background="new 0 0 158 138" xml:space="preserve">
<g>
	<path fill="#1369B3" d="M130,6.677v4.001c10,0,18.903,2.16,23.515,3.491c-1.91,8.557-8.501,31.34-25.462,41.437
		c-6.712,3.995-15.094,6.021-24.855,6.021c-8.434,0-16.186-1.538-21.171-2.818c13.445-12.117,30.903-21.677,51.94-28.28
		c1.051-0.33,1.632-1.452,1.304-2.507c-0.33-1.055-1.451-1.64-2.502-1.312c-16.525,5.187-36.084,13.862-52.455,28.234
		c2.645-10.08,9.587-29.223,24.743-38.244C111.77,12.704,120,10.678,130,10.678V6.677c0,0-0.117,0-0.118,0
		c-8.836,0-18.524,1.584-26.919,6.581c-20.56,12.237-26.76,40.774-27.819,46.563c-2.809,2.814-5.501,5.829-8.024,9.041
		c0.768-10.519,0.709-34.317-13.089-49.893C38.226,1.126,9.594-0.024,2.469-0.024c-1.056,0-1.642,0.025-1.642,0.025
		s-5.631,34.732,12.516,55.218c14.436,16.296,39.558,18.667,49.234,18.956c0.113,0.146,0.24,0.271,0.384,0.377
		c-2.866,4.249-5.455,8.819-7.701,13.737c-1.615-2.719-4.776-6.954-9.534-8.58c-1.553-0.531-3.15-0.739-4.699-0.739
		c-5.67,0-10.71,2.792-10.71,2.792s3.566,8.537,10.805,11.01c1.553,0.531,3.149,0.739,4.698,0.739c3.019,0,5.851-0.791,7.847-1.531
		c-0.119,0.292-0.248,0.574-0.364,0.869c-9.225,23.307-6.517,42.61-6.397,43.42c0.147,0.994,0.998,1.707,1.97,1.707
		c0.096,0,0.195-0.007,0.294-0.022c1.089-0.161,1.841-1.178,1.682-2.27c-0.027-0.19-2.665-19.207,6.231-41.545
		c4.779-12,12.01-22.757,21.497-32.111c4.895,1.407,14.189,3.6,24.588,3.6c8.836,0,18.466-1.584,26.861-6.581
		c22.938-13.654,28.087-47.616,28.087-47.616S145,6.677,130,6.677z M45.82,89.51c-1.244,0-2.392-0.177-3.412-0.525
		c-2.784-0.951-4.925-3.233-6.35-5.23c1.453-0.43,3.189-0.783,4.97-0.783c1.244,0,2.392,0.177,3.413,0.526
		c2.784,0.951,4.925,3.233,6.35,5.23C49.338,89.156,47.602,89.51,45.82,89.51z M16.324,52.561
		C7.728,42.858,5.025,29.394,4.27,19.809C3.749,13.189,4.059,7.438,4.372,4.006c8.359,0.237,33.073,2.271,46.671,17.621
		c8.596,9.703,11.299,23.166,12.054,32.752c0.387,4.914,0.315,9.344,0.125,12.707c-7.809-13.696-18.389-26.27-31.529-37.432
		c-0.838-0.715-2.099-0.611-2.81,0.234c-0.712,0.843-0.608,2.106,0.234,2.82c13.099,11.128,23.574,23.681,31.202,37.355
		C50.217,69.463,28.682,66.511,16.324,52.561z"/>
	<polygon fill="#1369B3" points="129.766,6.677 129.766,6.677 129.766,6.677 	"/>
</g>
</svg>
