<?xml version="1.0" encoding="utf-8"?>
<!-- Generator: Adobe Illustrator 17.0.0, SVG Export Plug-In . SVG Version: 6.00 Build 0)  -->
<!DOCTYPE svg PUBLIC "-//W3C//DTD SVG 1.1//EN" "http://www.w3.org/Graphics/SVG/1.1/DTD/svg11.dtd">
<svg version="1.1" id="Layer_2" xmlns="http://www.w3.org/2000/svg" xmlns:xlink="http://www.w3.org/1999/xlink" x="0px" y="0px"
	 width="187px" height="140px" viewBox="0 0 187 140" enable-background="new 0 0 187 140" xml:space="preserve">
<path fill="#1369B3" d="M78,43.09V35v-0.127c0-1.627-0.585-3.138-1.586-4.393l1.05-4.003c0.378-1.441,0.132-2.936-0.691-4.209
	c-0.792-1.225-2.049-2.114-3.538-2.504l-4.566-1.198C67.224,16.42,64.734,15,61.896,15H57h-1.925L26.528,7.512
	c-0.538-0.141-1.088-0.212-1.637-0.212c-2.606,0-4.854,1.626-5.464,3.955L18.444,15H8.104C8.069,15,8.035,15.005,8,15.005V15
	c-1.901,0-3.644,0.666-5.016,1.773c-0.013,0.01-0.027,0.02-0.04,0.03c-0.069,0.057-0.134,0.119-0.201,0.178
	C1.064,18.423,0,20.525,0,22.873v46.254C0,73.475,3.628,77,8.104,77h61.792C74.372,77,78,73.475,78,69.127V61.91
	c2.833-0.478,5-2.942,5-5.91v-7C83,46.033,80.833,43.569,78,43.09z M23.296,12.269c0.15-0.571,0.806-0.969,1.595-0.969
	c0.206,0,0.415,0.027,0.622,0.082L72.22,23.633c0.521,0.137,0.945,0.423,1.193,0.808c0.146,0.225,0.295,0.585,0.181,1.021
	l-0.635,2.422C71.675,27.323,70.221,27,68.675,27H66h-1H19.432L23.296,12.269z M5.463,19.933C6.179,19.36,7.094,19,8.104,19h9.291
	l-2.098,8H8c-2.206,0-4-1.794-4-4C4,21.762,4.577,20.667,5.463,19.933z M69.896,73H8.104C5.841,73,4,71.263,4,69.127V29.921
	C5.178,30.603,6.541,31,8,31h60.838C71.724,31,74,32.774,74,34.873V35v8h-9c-3.309,0-6,2.691-6,6v7c0,3.309,2.691,6,6,6h9v7.127
	C74,71.263,72.159,73,69.896,73z M79,56c0,1.103-0.897,2-2,2H65c-1.103,0-2-0.897-2-2v-7c0-1.103,0.897-2,2-2h12
	c1.103,0,2,0.897,2,2V56z"/>
<g>
	<path fill="#1369B3" d="M167.857,91h-3.454c-0.237-2-0.565-1.765-0.982-2.509l2.44-2.504c0.788-0.788,0.788-2.098,0-2.885
		l-1.426-1.442c-0.394-0.394-0.91-0.599-1.426-0.599s-1.032,0.193-1.426,0.587l-2.822,2.437c-0.744-0.417-0.761-0.746-2.761-0.984
		v-3.454c0-1.114-0.139-1.647-1.253-1.647h-2.018c-1.114,0-2.729,0.533-2.729,1.647v3.454c0,0.233-1.25,0.552-1.982,0.956
		l-2.424-2.601c-0.4-0.4-0.835-0.6-1.359-0.6c-0.524,0-1.004,0.2-1.404,0.6l-1.426,1.448c-0.8,0.8-0.789,2.097,0.011,2.896
		l2.608,2.732c-0.406,0.732-0.719,0.468-0.951,2.468h-3.454c-1.114,0-2.619,0.644-2.619,1.758v2.017
		c0,1.114,1.506,2.225,2.619,2.225h3.454c0.237,1,0.565,1.532,0.982,2.275l-2.44,2.387c-0.788,0.788-0.788,2.038,0,2.826
		l1.426,1.414c0.394,0.394,0.91,0.584,1.426,0.584c0.516,0,1.032-0.2,1.426-0.594l2.084-2.441c0.744,0.416,2.023,0.742,2.023,0.979
		v3.454c0,1.114,1.615,2.115,2.729,2.115h2.017c1.114,0,1.254-1.001,1.254-2.115v-3.454c2-0.232,1.988-0.551,2.719-0.957
		l2.793,2.602c0.4,0.4,1.019,0.599,1.544,0.599c0.524,0,1.096-0.2,1.496-0.599l1.472-1.449c0.8-0.8,0.812-2.097,0.012-2.896
		l-2.597-2.498c0.406-0.732,0.73-1.234,0.962-2.234h3.454c1.114,0,2.145-1.111,2.145-2.225v-2.017C170,91.643,168.97,91,167.857,91z
		 M153.738,99.144c-2.966,0-5.379-2.413-5.379-5.379s2.413-5.379,5.379-5.379s5.379,2.413,5.379,5.379
		S156.704,99.144,153.738,99.144z"/>
	<path fill="#1369B3" d="M179.613,61h-50.727c-4.211,0-7.887,3.426-7.887,7.636V73h0.358c-1.02,0-2.358,0.726-2.358,2.762v8.81
		c0,2.113,1.571,2.429,2.358,2.429H121v13h0.358c-1.02,0-2.358,0.726-2.358,2.762v8.81c0,2.113,1.571,2.429,2.358,2.429H121v5.363
		c0,4.211,3.676,7.637,7.887,7.637h4.363c0,1.105,0.895,2,2,2h8c1.105,0,2-0.895,2-2h18c0,1.105,0.895,2,2,2h8c1.105,0,2-0.895,2-2
		h4.363c4.211,0,7.387-3.426,7.387-7.637V68.636C187,64.426,183.824,61,179.613,61z M121.161,84.997
		c-0.017-0.069-0.161-0.2-0.161-0.426v-8.81c0-0.532,0.23-0.735,0.238-0.762l3.648-0.004c0.035,0.027,0.113,0.25,0.113,0.766v8.81
		c0,0.276,0.084,0.396,0.091,0.413C125.069,84.99,125.145,85,125.057,85h-3.698C121.33,85,121.181,84.999,121.161,84.997z
		 M121.358,112c-0.028,0-0.178-0.001-0.197-0.003c-0.017-0.069-0.161-0.2-0.161-0.426v-8.81c0-0.532,0.23-0.735,0.238-0.762
		l3.648-0.004c0.035,0.027,0.113,0.25,0.113,0.766v8.81c0,0.276,0.084,0.396,0.091,0.413c-0.021,0.006,0.054,0.016-0.034,0.016
		H121.358z M183,119.363c0,2.005-1.382,3.637-3.387,3.637h-50.727c-2.005,0-3.887-1.632-3.887-3.637V114h0.057
		c1.373,0,1.943-0.908,1.943-2.429v-8.81c0-1.652-0.632-2.762-1.943-2.762H125V87h0.057c1.373,0,1.943-0.908,1.943-2.429v-8.81
		c0-1.652-0.632-2.762-1.943-2.762H125v-4.364c0-2.005,1.882-3.636,3.887-3.636h50.727c2.005,0,3.387,1.631,3.387,3.636V119.363z"/>
</g>
<g>
	<path fill="#1369B3" d="M99.188,4c31.943,0,58.653,22.812,64.708,53h4.068c-6.096-32.445-34.56-57-68.776-57
		c-11.731,0-22.779,2.9-32.49,8h9.854C83.615,5.413,91.239,4,99.188,4z"/>
	<path fill="#1369B3" d="M118.874,133c-6.22,1.948-12.833,3-19.687,3c-31.588,0-58.051-22.312-64.491-52h-4.106
		c6.486,31.951,34.732,56,68.597,56c10.949,0,21.309-2.518,30.538-7H118.874z"/>
</g>
</svg>
