<?xml version="1.0" encoding="utf-8"?>
<!-- Generator: Adobe Illustrator 17.0.0, SVG Export Plug-In . SVG Version: 6.00 Build 0)  -->
<!DOCTYPE svg PUBLIC "-//W3C//DTD SVG 1.1//EN" "http://www.w3.org/Graphics/SVG/1.1/DTD/svg11.dtd">
<svg version="1.1" id="Layer_1" xmlns="http://www.w3.org/2000/svg" xmlns:xlink="http://www.w3.org/1999/xlink" x="0px" y="0px"
	 width="100px" height="100px" viewBox="0 0 100 100" enable-background="new 0 0 100 100" xml:space="preserve">
<path fill="#1369B3" d="M99.949,48C98.925,22,78.021,1.076,52,0.051V0h-4v0.051C21.314,1.102,0,23.056,0,50
	c0,26.943,21.314,48.898,48,49.949V100h4v-0.051C78.021,98.924,98.924,78,99.949,52H100v-4H99.949z M95.949,48H73.976
	c-0.166-9-1.416-16.987-3.484-24.038c4.142-1.739,8.069-4.022,11.677-6.802C90.25,25.079,95.43,36,95.949,48z M52,4.275
	c4.069,1.072,8.121,5.344,11.365,12.1c0.782,1.63,1.499,3.363,2.15,5.181c-4.348,1.446-8.898,2.265-13.514,2.41V4.275z
	 M60.729,5.276c6.857,1.645,13.124,4.82,18.408,9.157c-3.079,2.299-6.397,4.215-9.885,5.708C67.018,13.9,64.098,8.792,60.729,5.276z
	 M36.636,16.376C39.879,9.619,43.931,5.347,48,4.275v19.652c-4.597-0.244-9.102-1.158-13.397-2.685
	C35.224,19.54,35.899,17.91,36.636,16.376z M30.894,19.751c-3.36-1.521-6.554-3.435-9.522-5.717c5.177-4.13,11.259-7.164,17.9-8.758
	C35.973,8.717,33.109,13.688,30.894,19.751z M48,27.936V48H30.023c0.16-8,1.311-16.108,3.332-22.957
	C38.049,26.702,42.975,27.69,48,27.936z M48,52v20.028c-5.044,0.123-10.02,0.97-14.777,2.495C31.282,67.778,30.18,60,30.023,52H48z
	 M48,76.028v19.697c-4.069-1.072-8.121-5.344-11.364-12.101c-0.799-1.664-1.53-3.433-2.192-5.293
	C38.808,76.932,43.373,76.151,48,76.028z M39.271,94.724c-6.964-1.671-13.319-4.921-18.655-9.362
	c3.135-2.287,6.519-4.188,10.078-5.66C32.936,86.013,35.874,91.18,39.271,94.724z M63.364,83.624
	C60.121,90.381,56.069,94.653,52,95.725V76.086c4.59,0.258,9.098,1.167,13.394,2.678C64.775,80.464,64.1,82.092,63.364,83.624z
	 M69.108,80.245c3.385,1.512,6.604,3.409,9.583,5.673c-5.191,4.155-11.295,7.207-17.962,8.807
	C64.028,91.282,66.893,86.309,69.108,80.245z M52,72.078V52h17.977c-0.16,8-1.312,16.114-3.334,22.964
	C61.946,73.321,57.018,72.339,52,72.078z M52,48V27.967c5.036-0.146,10-1.029,14.742-2.603C68.704,32.136,69.819,40,69.977,48H52z
	 M18.305,16.709c3.502,2.777,7.303,5.085,11.323,6.865C27.49,30.712,26.193,39,26.024,48H4.051C4.58,36,9.954,24.664,18.305,16.709z
	 M4.051,52h21.974c0.165,9,1.397,16.868,3.438,23.884c-4.213,1.712-8.208,3.968-11.869,6.729C9.646,74.714,4.565,64,4.051,52z
	 M81.758,83.231c-3.51-2.755-7.341-5.03-11.387-6.801C72.509,69.291,73.806,61,73.976,52h21.974
	C95.422,64,90.073,75.28,81.758,83.231z"/>
</svg>
