<?xml version="1.0" encoding="utf-8"?>
<!-- Generator: Adobe Illustrator 17.0.0, SVG Export Plug-In . SVG Version: 6.00 Build 0)  -->
<!DOCTYPE svg PUBLIC "-//W3C//DTD SVG 1.1//EN" "http://www.w3.org/Graphics/SVG/1.1/DTD/svg11.dtd">
<svg version="1.1" id="Layer_1" xmlns="http://www.w3.org/2000/svg" xmlns:xlink="http://www.w3.org/1999/xlink" x="0px" y="0px"
	 width="139px" height="139px" viewBox="0 0 139 139" enable-background="new 0 0 139 139" xml:space="preserve">
<path fill="#1369B3" d="M129.122,45.151L93.349,9.379C86.763,2.793,78.132-0.5,69.5-0.5c-8.632,0-17.263,3.293-23.849,9.878
	L9.878,45.151c-13.171,13.171-13.171,34.526,0,47.698l35.773,35.773c6.586,6.586,15.217,9.878,23.849,9.878
	c8.631,0,17.263-3.293,23.849-9.878l35.773-35.773C142.293,79.677,142.293,58.323,129.122,45.151z M69.5,100.5
	c-17.045,0-30.912-13.906-30.912-31c0-17.093,13.867-31,30.912-31s30.912,13.906,30.912,31C100.412,86.593,86.545,100.5,69.5,100.5z
	 M92.715,43.374C86.546,37.857,78.416,34.5,69.5,34.5c-9.169,0-17.508,3.551-23.736,9.35L32.368,30.449
	C42.037,21.199,55.113,15.5,69.5,15.5c14.134,0,27.006,5.497,36.622,14.461L92.715,43.374z M29.984,32.868l13.409,13.414
	c-5.468,6.179-8.794,14.307-8.794,23.218c0,8.911,3.326,17.039,8.794,23.217l-13.41,13.414c-8.886-9.634-14.33-22.505-14.33-36.632
	C15.653,55.373,21.097,42.502,29.984,32.868z M45.764,95.15c6.228,5.799,14.567,9.35,23.736,9.35c8.916,0,17.046-3.357,23.215-8.874
	l13.408,13.412C96.506,118.003,83.634,123.5,69.5,123.5c-14.387,0-27.463-5.699-37.132-14.95L45.764,95.15z M108.53,106.643
	l-13.396-13.4c5.749-6.239,9.266-14.578,9.266-23.743c0-9.165-3.517-17.504-9.266-23.743l13.395-13.4
	c9.171,9.687,14.817,22.762,14.817,37.143C123.347,83.881,117.701,96.956,108.53,106.643z M47.06,10.795
	C53.053,4.801,61.023,1.5,69.5,1.5c8.477,0,16.447,3.301,22.44,9.294l12.468,12.468C94.706,15.884,82.616,11.5,69.5,11.5
	c-13.116,0-25.207,4.385-34.909,11.763L47.06,10.795z M1.994,69c0-8.474,3.3-16.44,9.292-22.432L23.51,34.344
	C16.084,44.099,11.665,56.28,11.665,69.5c0,11.729,3.483,22.636,9.451,31.762l-9.829-9.829C5.294,85.44,1.994,77.474,1.994,69z
	 M91.94,127.206c-5.994,5.994-13.963,9.294-22.44,9.294c-8.477,0-16.447-3.301-22.441-9.294l-9.097-9.097
	c9.073,5.932,19.899,9.392,31.538,9.392c11.638,0,22.465-3.46,31.538-9.392L91.94,127.206z M127.713,91.432l-9.829,9.829
	c5.968-9.125,9.451-20.033,9.451-31.761c0-13.22-4.419-25.401-11.845-35.156l12.223,12.223c5.992,5.992,9.292,13.959,9.292,22.433
	S133.706,85.44,127.713,91.432z"/>
</svg>
