<?xml version="1.0" encoding="utf-8"?>
<!-- Generator: Adobe Illustrator 18.0.0, SVG Export Plug-In . SVG Version: 6.00 Build 0)  -->
<!DOCTYPE svg PUBLIC "-//W3C//DTD SVG 1.1//EN" "http://www.w3.org/Graphics/SVG/1.1/DTD/svg11.dtd">
<svg version="1.1" id="Layer_1" xmlns="http://www.w3.org/2000/svg" xmlns:xlink="http://www.w3.org/1999/xlink" x="0px" y="0px"
	 viewBox="0 232.1 624 328.7" enable-background="new 0 232.1 624 328.7" xml:space="preserve">
<g>
	<g>
		
			<linearGradient id="SVGID_1_" gradientUnits="userSpaceOnUse" x1="-513.3782" y1="749.9611" x2="-506.5587" y2="747.4789" gradientTransform="matrix(27.7523 0 0 -27.7523 14454.5918 21100.7773)">
			<stop  offset="6.100000e-03" style="stop-color:#66C9D8"/>
			<stop  offset="0.1394" style="stop-color:#51C5DA"/>
			<stop  offset="0.6545" style="stop-color:#1068B2"/>
			<stop  offset="1" style="stop-color:#16254C"/>
		</linearGradient>
		<path fill="url(#SVGID_1_)" d="M338,298.9c-87.8-31.7-78.1-53.2-66.2-62.8c2.3-1.1,4.5-1.7,6.8-2.8c-1.1,0-2.3,0-3.4,0l0,0
			c1.1,0,2.3,0,3.4,0c-0.6,0-1.1-0.6-2.3-0.6c0,0,0.6,0,0.6-0.6c0,0-0.6,0-0.6,0.6c-5.1-1.1-14.7,0.6-32.8,11.3l-2.3,1.7
			c-6.2,4.5-10.2,7.9-14.2,11.9c-1.7,1.7-4,4-5.7,6.2c-36.2,44.2-29.4,109.8,109.8,148.3c9.6,2.8,9.6,2.8,10.8,4.5
			c5.7-2.8,7.9-4,12.5-6.2c5.7-4.5-0.6-6.8-20.4-13.6c-26.6-9.6-66.2-23.2-96.2-51c-60.6-56-1.1-107.6,36.2-112.1l0,0
			c-50.4,6.2-124.6,88.9,61.1,156.3c22.6,8.5,30.6,11.3,23.2,17.6h0.6c5.7-4,10.2-7.9,13.6-10.8c9.6-9.6-2.8-15.9-22.6-23.8
			c-19.8-7.9-52.7-20.9-80.4-39.6c-66.8-45.3-37.9-86.6,2.3-97.9c-0.6,0.6-1.7,1.1-2.8,1.7c-31.1,11.9-91.1,57.7,81,127.4
			c24.9,10.2,35.7,15.9,27.2,27.2c2.3-2.8,5.1-6.2,7.4-9.1c1.7-2.3,4-5.7,5.7-8.5c1.7-2.8,6.2-10.8-7.9-19.8
			c-22.6-14.7-49.3-22.1-73-34c-65.7-31.7-69.6-60-50.4-76.4c-14.2,14.2-18.1,40.8,79.3,79.8c47.6,19.2,58.9,28.3,53.8,41.9
			c2.3-4.5,2.3-4.5,5.7-14.2c0.6-2.8,1.7-6.2,2.3-9.1C403.7,324.9,366.9,309.7,338,298.9z M274,234.4c1.1-0.6,2.8-0.6,4-1.1
			c-1.1,0-2.8,0.6-4.5,1.1C273.4,234.9,273.4,234.9,274,234.4z"/>
		
			<linearGradient id="SVGID_2_" gradientUnits="userSpaceOnUse" x1="-513.9506" y1="748.5026" x2="-508.2355" y2="746.4225" gradientTransform="matrix(27.7523 0 0 -27.7523 14454.5918 21100.7773)">
			<stop  offset="6.100000e-03" style="stop-color:#66C9D8"/>
			<stop  offset="0.1394" style="stop-color:#51C5DA"/>
			<stop  offset="0.6545" style="stop-color:#1068B2"/>
			<stop  offset="1" style="stop-color:#16254C"/>
		</linearGradient>
		<path fill="url(#SVGID_2_)" d="M328.9,415.5c-101.9-23.8-147.8-74.7-120-133l-1.1,2.8c-2.8,5.7-2.8,5.7-5.7,15.3
			c-1.7,5.7-1.7,6.2-3.4,15.9c-0.6,3.4-0.6,7.9-0.6,11.3c3.4,80.4,121.7,95.1,130.2,93.4c1.1-0.6,2.8-0.6,4-1.1
			c1.7-0.6,1.7-0.6,5.1-1.7l1.7-0.6C337.4,417.2,337.4,417.2,328.9,415.5z"/>
		
			<linearGradient id="SVGID_3_" gradientUnits="userSpaceOnUse" x1="-513.9904" y1="747.118" x2="-509.0717" y2="745.3278" gradientTransform="matrix(27.7523 0 0 -27.7523 14454.5918 21100.7773)">
			<stop  offset="6.100000e-03" style="stop-color:#66C9D8"/>
			<stop  offset="0.1394" style="stop-color:#51C5DA"/>
			<stop  offset="0.6545" style="stop-color:#1068B2"/>
			<stop  offset="1" style="stop-color:#16254C"/>
		</linearGradient>
		<path fill="url(#SVGID_3_)" d="M198.7,343.1l1.1,6.8c14.7,54.3,66.8,85.5,122.3,73l1.7-0.6C317.6,424,214,416.7,198.7,343.1z"/>
	</g>
	<g>
		<path fill="#231F20" d="M0,511.2L0,511.2c0-24.9,18.7-45.9,45.9-45.9c13,0,22.1,3.4,30,9.1c1.7,1.1,3.4,3.4,3.4,6.2
			c0,4-3.4,7.9-7.9,7.9c-2.3,0-3.4-1.1-4.5-1.7c-5.7-4-11.9-6.8-21.5-6.8c-16.4,0-28.9,14.2-28.9,31.1l0,0c0,18.1,11.9,31.7,30,31.7
			c8.5,0,15.9-2.8,21.5-6.8v-16.4H50.4c-4,0-6.8-2.8-6.8-6.8c0-4,3.4-6.8,6.8-6.8h24.9c4.5,0,7.9,3.4,7.9,7.9v23.8
			c0,4.5-1.7,7.4-5.7,9.6c-7.4,5.1-18.1,9.6-31.7,9.6C18.1,557.1,0,537.3,0,511.2z"/>
		<path fill="#231F20" d="M99.1,470.4c0-4,3.4-7.4,7.4-7.4s7.9,3.4,7.9,7.4v78.1c0,4.5-3.4,7.4-7.9,7.4c-4,0-7.4-3.4-7.4-7.4V470.4
			L99.1,470.4z"/>
		<path fill="#231F20" d="M127.4,522.5L127.4,522.5c0-19.2,15.3-35.1,35.7-35.1s35.7,15.3,35.7,34.5l0,0c0,18.7-15.3,34.5-35.7,34.5
			C142.1,557.1,127.4,541.2,127.4,522.5z M183.4,522.5L183.4,522.5c0-11.9-8.5-21.5-20.4-21.5c-12.5,0-19.8,9.6-19.8,20.9l0,0
			c0,11.9,8.5,21.5,20.4,21.5S183.4,533.9,183.4,522.5z"/>
		<path fill="#231F20" d="M210.6,470.4c0-4.5,3.4-7.4,7.4-7.4c4,0,7.9,3.4,7.9,7.4v29.4c5.1-6.8,11.9-12.5,23.2-12.5
			c15.9,0,31.1,12.5,31.1,34.5l0,0c0,22.1-15.3,34.5-31.1,34.5c-11.3,0-18.1-5.7-22.6-11.9v3.4c0,4-3.4,7.4-7.9,7.4
			c-4,0-7.4-3.4-7.4-7.4v-77.6H210.6z M264.4,522L264.4,522c0-13-8.5-21.5-19.2-21.5c-10.2,0-19.2,8.5-19.2,21.5l0,0
			c0,13,9.1,21.5,19.2,21.5C255.9,543.5,264.4,535.6,264.4,522z"/>
		<path fill="#231F20" d="M324.4,557.1c-19.2,0-34-14.2-34-34.5l0,0c0-19.2,13.6-34.5,32.8-34.5c20.9,0,31.7,17.6,31.7,32.8
			c0,4.5-3.4,7.4-7.4,7.4h-41.9c1.7,10.8,9.6,17,19.2,17c6.2,0,11.3-2.3,15.9-5.7c1.1-1.1,2.3-1.1,4-1.1c3.4,0,6.2,2.8,6.2,6.2
			c0,1.7-1.1,3.4-2.3,4.5C342.5,553.7,334.6,557.1,324.4,557.1z M339.7,517.4c-1.1-9.6-6.8-17.6-17-17.6c-9.6,0-15.9,7.4-17.6,17.6
			H339.7z"/>
		<path fill="#231F20" d="M366.3,511.2L366.3,511.2c0-24.3,17.6-45.9,44.7-45.9c26.6,0,44.2,21.5,44.2,45.3l0,0
			c0,24.3-17.6,45.9-44.7,45.9C383.8,557.1,366.3,535.6,366.3,511.2z M448.4,511.2L448.4,511.2c0-22.1-15.9-40.2-37.9-40.2
			c-22.1,0-37.4,17.6-37.4,39.6l0,0c0,22.1,15.9,39.6,37.9,39.6C433.1,550.8,448.4,533.3,448.4,511.2z"/>
		<path fill="#231F20" d="M469.9,493.7c0-1.7,1.1-3.4,2.8-3.4c1.7,0,3.4,1.1,3.4,3.4v9.6c4.5-7.4,11.3-13.6,23.2-13.6
			c16.4,0,26,11.3,26,26.6v36.8c0,1.7-1.1,3.4-2.8,3.4c-1.7,0-3.4-1.1-3.4-3.4v-35.7c0-13-7.4-22.1-20.4-22.1
			c-12.5,0-22.1,9.6-22.1,23.2v34.5c0,1.7-1.1,3.4-2.8,3.4c-1.7,0-3.4-1.1-3.4-3.4L469.9,493.7L469.9,493.7z"/>
		<path fill="#231F20" d="M570.1,557.1c-17,0-31.7-13.6-31.7-33.4l0,0c0-18.7,13-33.4,30.6-33.4c18.1,0,29.4,14.7,29.4,33.4
			c0,1.7-1.7,2.8-2.8,2.8h-50.4c1.1,15.9,12.5,25.5,25.5,25.5c9.1,0,15.9-4,20.9-9.1c0.6-0.6,1.1-1.1,2.3-1.1c1.7,0,2.8,1.1,2.8,2.8
			c0,0.6,0,1.1-1.1,2.3C588.8,552.5,582,557.1,570.1,557.1z M592.2,520.3c-1.1-13-8.5-24.9-23.2-24.9c-13,0-22.6,10.8-23.8,24.9
			H592.2z"/>
	</g>
</g>
<text transform="matrix(1 0 0 1 595.4766 488.1514)" font-family="'Helvetica'" font-size="38.1413">®</text>
</svg>
