<?xml version="1.0" encoding="utf-8"?>
<!-- Generator: Adobe Illustrator 18.1.0, SVG Export Plug-In . SVG Version: 6.00 Build 0)  -->
<svg version="1.1" id="Layer_1" xmlns="http://www.w3.org/2000/svg" xmlns:xlink="http://www.w3.org/1999/xlink" x="0px" y="0px"
	 width="960px" height="243px" viewBox="0 779 960 243" enable-background="new 0 779 960 243" xml:space="preserve">
<rect x="1" y="780.9" fill="#FFFFFF" width="958" height="238.2"/>
<g>
	<g>
		<g>
			
				<linearGradient id="SVGID_1_" gradientUnits="userSpaceOnUse" x1="-3026.6567" y1="-620.1052" x2="-2945.0828" y2="-620.1052" gradientTransform="matrix(2.8828 0 0 2.8828 8733.6621 2683.9504)">
				<stop  offset="6.100000e-03" style="stop-color:#66CAD8"/>
				<stop  offset="0.1394" style="stop-color:#51C6DB"/>
				<stop  offset="0.6545" style="stop-color:#1268B3"/>
				<stop  offset="1" style="stop-color:#16254C"/>
			</linearGradient>
			<path fill="url(#SVGID_1_)" d="M169.2,865.3c-104.1-38-92.5-63.7-78.6-74.5c2.6-1.2,5.5-2.3,8.3-3.1c-1.4,0-2.9,0-4.3,0.3l0,0
				c1.4,0,2.9-0.3,4-0.3c-0.5-0.3-1.4-0.5-2.6-0.5c0.3-0.3,0.5-0.3,0.9-0.3c0,0-0.3,0.3-0.9,0.3c-6-1.3-17.9,0.2-39.1,13.4l-2.6,1.7
				c-7.5,5.5-12.1,9.7-17.1,14.4c-2.1,2.1-4.7,5.2-6.6,7.1c-43.2,52.8-34.9,130.9,130.8,176.5c11.8,3.1,11.8,3.1,13,5.5
				c6.9-3.1,9.2-4.7,14.4-7.5c6.9-5.5-0.5-8-24.5-16.6c-31.1-10.9-78.3-27.4-114.2-60.3c-61.7-57.2-19.2-110.1,22.8-127.7
				c-55.4,23.4-103.5,108.9,93.4,180.7c27.4,9.7,36.6,13.2,27.4,20.6l0.3-0.3c6.9-4.7,12.1-9.2,16.2-13.2
				c11.3-11.5-3.5-18.8-27.4-28.3c-23.7-9.2-62.9-24.8-95.7-46.9c-79.6-53.9-45.3-103.5,2.5-116.8c-0.9,0.5-2.1,1.2-3.1,1.7
				C50,806-21.8,861.1,183.2,943.9c29.7,11.8,42.3,19.2,32.3,31.9c2.9-3.1,6.4-7.5,8.9-10.9c2.1-2.9,4.7-6.9,6.6-10.1
				c1.7-3.1,7.1-13-9.2-24c-26.7-18-58.3-26.5-87.4-40.3c-78.1-37.5-83.1-71.2-59.7-90.8c-17.1,16.8-21.4,48.8,94.9,95.2
				c56.5,22.8,70.4,33.4,64,50.2c2.6-5.5,2.6-5.5,6.6-17.1c0.9-3.1,2.1-7.1,2.6-10.4C247.7,896.1,204.2,878.2,169.2,865.3z
				 M98.1,787.3c-1.7,0.3-3.5,0.9-5.7,1.4c0.3-0.3,0.5-0.3,0.5-0.5C94.9,788.3,96.4,788,98.1,787.3z M73.5,793.3
				c6.9-2.9,13.5-4.7,19.9-5.5l0,0C86.9,788.6,80.1,790.3,73.5,793.3z"/>
			
				<linearGradient id="SVGID_2_" gradientUnits="userSpaceOnUse" x1="-3028.8823" y1="-608.8472" x2="-2970.7773" y2="-608.8472" gradientTransform="matrix(2.8828 0 0 2.8828 8733.6621 2683.9504)">
				<stop  offset="6.100000e-03" style="stop-color:#66CAD8"/>
				<stop  offset="0.1394" style="stop-color:#51C6DB"/>
				<stop  offset="0.6545" style="stop-color:#1268B3"/>
				<stop  offset="1" style="stop-color:#16254C"/>
			</linearGradient>
			<path fill="url(#SVGID_2_)" d="M158.9,1004.2C37.7,975.7-17.5,914.9,15.5,845.9l-1.7,3.1c-3.1,6.6-3.1,6.9-6.9,18.3
				c-2.1,6.6-2.1,7.1-4,19.2c-0.3,4-0.5,9.5-0.9,13.5c3.8,95.7,145.3,113.4,155.2,111.5c1.4-0.3,3.1-0.9,4.7-1.4
				c2.1-0.5,2.1-0.5,6.1-2.1l2.1-0.9C169,1006.5,169,1006.5,158.9,1004.2z"/>
			
				<linearGradient id="SVGID_3_" gradientUnits="userSpaceOnUse" x1="-3028.3271" y1="-595.5845" x2="-2976.3638" y2="-595.5845" gradientTransform="matrix(2.8828 0 0 2.8828 8733.6621 2683.9504)">
				<stop  offset="6.100000e-03" style="stop-color:#66CAD8"/>
				<stop  offset="0.1394" style="stop-color:#51C6DB"/>
				<stop  offset="0.6545" style="stop-color:#1268B3"/>
				<stop  offset="1" style="stop-color:#16254C"/>
			</linearGradient>
			<path fill="url(#SVGID_3_)" d="M3.6,917.6l1.7,8.3c17.6,64.9,79.9,101.8,146,87.4l2.1-0.5C145.2,1014.7,22.1,1005.6,3.6,917.6z"
				/>
		</g>
		<g>
			<path d="M272.9,910.5L272.9,910.5c0-27.9,21.1-51.3,50.8-51.3c14.7,0,24.5,3.5,33.7,10.1c1.7,1.2,3.5,3.8,3.5,6.9
				c0,4.7-3.8,8.7-8.7,8.7c-2.3,0-4-0.9-5.5-2.1c-6.4-4.7-13.2-7.8-24-7.8c-18.3,0-31.9,15.8-31.9,34.5v0.3
				c0,20.2,13.2,35.1,33.4,35.1c9.2,0,17.6-2.9,23.7-7.5V919h-19.7c-4.3,0-7.8-3.1-7.8-7.5s3.5-7.5,7.8-7.5h27.4
				c4.9,0,8.7,3.8,8.7,8.7v26.2c0,4.9-2.1,8.3-6.1,10.9c-8.3,5.7-20.2,10.6-34.9,10.6C293,961,272.9,939,272.9,910.5z"/>
			<path d="M383,864.4c0-4.7,3.8-8.3,8.3-8.3s8.7,3.8,8.7,8.3v87.4c0,4.9-3.8,8.3-8.7,8.3c-4.7,0-8.3-3.8-8.3-8.3V864.4z"/>
			<path d="M414.6,922.8L414.6,922.8c0-21.6,17.1-39.2,39.7-39.2c22.7,0,39.4,17.4,39.4,38.6v0.3c0,21.1-17.1,38.6-39.7,38.6
				C431.3,961,414.6,943.7,414.6,922.8z M476.6,922.8L476.6,922.8c0-13.2-9.5-24.1-22.8-24.1c-13.5,0-22.5,10.6-22.5,23.7v0.3
				c0,13,9.5,23.7,22.8,23.7C468,946.3,476.6,935.5,476.6,922.8z"/>
			<path d="M507.5,864.4c0-4.9,3.8-8.3,8.3-8.3c4.9,0,8.7,3.8,8.7,8.3v33.1c5.5-7.8,13.2-13.9,25.3-13.9c17.4,0,34.5,13.9,34.5,38.6
				v0.3c0,24.5-17.1,38.6-34.5,38.6c-12.3,0-20.2-6.1-25.3-13v3.8c0,4.7-3.8,8.3-8.7,8.3c-4.7,0-8.3-3.8-8.3-8.3V864.4L507.5,864.4z
				 M567.2,922.4L567.2,922.4c0-14.7-9.7-24-21.4-24c-11.5,0-21.6,9.5-21.6,23.7v0.3c0,14.1,10.1,23.7,21.6,23.7
				C557.3,946.3,567.2,937.1,567.2,922.4z"/>
			<path d="M633.8,961c-21.6,0-38-15.6-38-38.6v-0.3c0-21.4,14.9-38.6,36.3-38.6c23.7,0,35.1,19.4,35.1,36.6c0,4.9-3.8,8-8,8h-46.5
				c1.7,12.1,10.4,18.8,21.4,18.8c7.1,0,12.7-2.6,17.6-6.4c1.2-0.9,2.3-1.4,4.3-1.4c3.8,0,6.6,2.9,6.6,6.9c0,2.1-0.9,4-2.3,5.2
				C653.8,957.3,645.3,961,633.8,961z M650.7,917.2c-1.2-10.9-7.5-19.7-18.8-19.7c-10.4,0-17.6,8-19.4,19.7H650.7z"/>
			<path d="M680.8,910.5L680.8,910.5c0-27.1,19.9-51.3,49.6-51.3s49.4,23.7,49.4,50.8v0.3c0,26.7-19.9,51.1-49.6,51.1
				C700.4,961,680.8,937.3,680.8,910.5z M772.1,910.5L772.1,910.5c0-24.5-17.6-44.6-42-44.6c-24.1,0-41.8,19.7-41.8,44.1v0.3
				c0,24.1,17.6,44.4,42,44.4C754.8,954.4,772.1,934.7,772.1,910.5z"/>
			<path d="M796,890.6c0-2.1,1.4-3.5,3.5-3.5s3.5,1.4,3.5,3.5V901c4.9-8.3,12.7-14.9,25.9-14.9c18.3,0,28.8,12.3,28.8,29.3v40.9
				c0,2.1-1.4,3.5-3.5,3.5s-3.5-1.4-3.5-3.5v-39.7c0-14.7-8.3-24.5-22.8-24.5c-14.1,0-24.8,10.6-24.8,25.7v38.6
				c0,2.1-1.4,3.5-3.5,3.5s-3.5-1.4-3.5-3.5v-65.7H796V890.6z"/>
			<path d="M907.6,961c-18.8,0-35.1-14.9-35.1-37.5v-0.3c0-20.8,14.7-37.5,34-37.5c20.2,0,32.8,16.8,32.8,37.1
				c0,1.7-1.7,3.1-3.5,3.1h-56.3c1.2,18,14.1,28.3,28.3,28.3c10.4,0,17.6-4.3,23.4-9.7c0.5-0.5,1.2-0.9,2.3-0.9
				c1.7,0,3.5,1.4,3.5,3.1c0,0.5-0.3,1.4-1.2,2.3C928.7,956.4,920.6,961,907.6,961z M931.9,920.2c-0.9-14.4-9.2-27.9-25.7-27.9
				c-14.1,0-25,11.8-26.5,27.9H931.9z"/>
		</g>
	</g>
	<g>
		<path d="M943.3,880.2h-3.1v8.3H938v-8.3h-3v-1.4h8v1.4H943.3z M950.8,885.7l2.6-6.9h2.9v9.7h-1.7v-7.8l0,0l-2.9,7.8h-1.4l-2.9-7.8
			l0,0v7.8h-1.7v-9.7h2.9L950.8,885.7z"/>
	</g>
</g>
</svg>
