<?xml version="1.0" encoding="utf-8"?>
<!-- Generator: Adobe Illustrator 18.1.0, SVG Export Plug-In . SVG Version: 6.00 Build 0)  -->
<svg version="1.1" id="Layer_1" xmlns="http://www.w3.org/2000/svg" xmlns:xlink="http://www.w3.org/1999/xlink" x="0px" y="0px"
	 width="170.3px" height="91.8px" viewBox="0 0 170.3 91.8" enable-background="new 0 0 170.3 91.8" xml:space="preserve">
<g>
	<g>
		<g>
			<linearGradient id="SVGID_1_" gradientUnits="userSpaceOnUse" x1="56.6902" y1="26.7804" x2="110.2665" y2="26.7804">
				<stop  offset="6.060610e-03" style="stop-color:#66CAD8"/>
				<stop  offset="0.1394" style="stop-color:#51C6DB"/>
				<stop  offset="0.6545" style="stop-color:#1268B3"/>
				<stop  offset="1" style="stop-color:#16254C"/>
			</linearGradient>
			<path fill="url(#SVGID_1_)" d="M93.3,19.8c-23.7-8.7-21.1-14.5-17.9-17c0.6-0.3,1.2-0.5,1.9-0.7c-0.3,0-0.6,0-1,0.1c0,0,0,0,0,0
				c0.3,0,0.6,0,0.9,0C77.2,2,77,1.9,76.7,1.9c0.1,0,0.1-0.1,0.2-0.1c0,0-0.1,0-0.2,0.1C75.3,1.7,72.6,2,67.8,5l-0.6,0.4
				c-1.7,1.2-2.8,2.2-3.9,3.3c-0.5,0.5-1.1,1.1-1.5,1.6c-9.9,12.1-8,29.8,29.8,40.2c2.7,0.7,2.7,0.7,2.9,1.2c1.6-0.7,2.1-1,3.3-1.7
				c1.6-1.2-0.1-1.8-5.6-3.7c-7.1-2.5-17.9-6.2-26-13.7c-14-13-4.3-25.1,5.2-29.1C58.7,8.7,47.8,28.3,92.7,44.6
				c6.2,2.3,8.3,3,6.2,4.7l0.1-0.1c1.6-1.1,2.7-2.1,3.7-3c2.6-2.6-0.8-4.2-6.2-6.4c-5.4-2.1-14.3-5.7-21.8-10.7
				C56.5,16.8,64.4,5.6,75.3,2.5c-0.2,0.1-0.5,0.2-0.7,0.4c-8.3,3.4-24.7,15.9,22,34.7c6.7,2.7,9.7,4.3,7.4,7.3
				c0.6-0.7,1.4-1.7,2-2.5c0.5-0.7,1.1-1.6,1.5-2.3c0.4-0.7,1.6-2.9-2.1-5.4c-6.1-4.1-13.3-6-19.9-9.2C67.8,17,66.6,9.3,71.9,4.9
				C68,8.7,67.1,16,93.5,26.6c12.9,5.2,16,7.6,14.6,11.5c0.6-1.3,0.6-1.3,1.5-3.9c0.2-0.7,0.4-1.7,0.6-2.4
				C111.2,26.8,101.3,22.8,93.3,19.8z M77.2,2.1c-0.4,0.1-0.8,0.2-1.3,0.3c0.1,0,0.1-0.1,0.2-0.1C76.4,2.3,76.8,2.2,77.2,2.1z
				 M71.5,3.4c1.6-0.6,3.1-1.1,4.6-1.2c0,0,0,0,0,0C74.6,2.3,73.1,2.8,71.5,3.4z"/>
			<linearGradient id="SVGID_2_" gradientUnits="userSpaceOnUse" x1="55.2781" y1="34.2793" x2="93.4399" y2="34.2793">
				<stop  offset="6.060610e-03" style="stop-color:#66CAD8"/>
				<stop  offset="0.1394" style="stop-color:#51C6DB"/>
				<stop  offset="0.6545" style="stop-color:#1268B3"/>
				<stop  offset="1" style="stop-color:#16254C"/>
			</linearGradient>
			<path fill="url(#SVGID_2_)" d="M91,51.5c-27.7-6.5-40.2-20.3-32.7-36.1l-0.4,0.7c-0.7,1.5-0.7,1.6-1.6,4.2
				c-0.4,1.5-0.5,1.6-0.9,4.3c-0.1,0.9-0.1,2.2-0.2,3.1c0.9,21.8,33.1,25.8,35.3,25.4c0.3-0.1,0.7-0.2,1-0.3
				c0.5-0.2,0.5-0.2,1.4-0.5l0.5-0.2C93.3,52,93.3,52,91,51.5z"/>
			<linearGradient id="SVGID_3_" gradientUnits="userSpaceOnUse" x1="55.6002" y1="42.9706" x2="89.6847" y2="42.9706">
				<stop  offset="6.060610e-03" style="stop-color:#66CAD8"/>
				<stop  offset="0.1394" style="stop-color:#51C6DB"/>
				<stop  offset="0.6545" style="stop-color:#1268B3"/>
				<stop  offset="1" style="stop-color:#16254C"/>
			</linearGradient>
			<path fill="url(#SVGID_3_)" d="M55.6,31.7l0.4,1.9c4,14.8,18.2,23.2,33.2,19.9l0.5-0.1C87.8,53.8,59.8,51.8,55.6,31.7z"/>
		</g>
		<g>
			<path d="M1.7,77.5L1.7,77.5C1.7,70.7,6.8,65,14,65c3.6,0,6,0.9,8.2,2.4c0.4,0.3,0.9,0.9,0.9,1.7c0,1.1-0.9,2.1-2.1,2.1
				c-0.5,0-1-0.2-1.3-0.5c-1.5-1.1-3.2-1.9-5.8-1.9c-4.4,0-7.8,3.9-7.8,8.5v0.1c0,4.9,3.3,8.6,8.2,8.6c2.3,0,4.3-0.7,5.8-1.8v-4.5
				h-4.7c-1,0-1.9-0.8-1.9-1.8c0-1,0.9-1.9,1.9-1.9H22c1.2,0,2.1,0.9,2.1,2.1v6.4c0,1.2-0.5,2.1-1.5,2.7c-2.1,1.4-4.9,2.6-8.5,2.6
				C6.6,89.9,1.7,84.5,1.7,77.5z"/>
			<path d="M28.5,66.3c0-1.1,0.9-2.1,2.1-2.1c1.2,0,2.1,0.9,2.1,2.1v21.3c0,1.2-0.9,2.1-2.1,2.1c-1.1,0-2.1-0.9-2.1-2.1V66.3z"/>
			<path d="M36.2,80.5L36.2,80.5c0-5.3,4.1-9.5,9.7-9.5c5.6,0,9.6,4.2,9.6,9.4v0.1c0,5.1-4.1,9.4-9.7,9.4
				C40.3,89.9,36.2,85.6,36.2,80.5z M51.4,80.5L51.4,80.5c0-3.3-2.3-5.9-5.6-5.9c-3.3,0-5.5,2.6-5.5,5.8v0.1c0,3.2,2.3,5.8,5.5,5.8
				C49.3,86.2,51.4,83.6,51.4,80.5z"/>
			<path d="M58.9,66.3c0-1.2,0.9-2.1,2.1-2.1c1.2,0,2.1,0.9,2.1,2.1v8.1c1.3-1.9,3.2-3.4,6.2-3.4c4.3,0,8.4,3.4,8.4,9.4v0.1
				c0,6-4.1,9.4-8.4,9.4c-3,0-4.9-1.5-6.2-3.2v0.9c0,1.1-0.9,2.1-2.1,2.1c-1.1,0-2.1-0.9-2.1-2.1V66.3z M73.4,80.4L73.4,80.4
				c0-3.6-2.4-5.9-5.2-5.9c-2.8,0-5.3,2.3-5.3,5.8v0.1c0,3.5,2.5,5.8,5.3,5.8C71.1,86.2,73.4,84,73.4,80.4z"/>
			<path d="M89.7,89.9c-5.2,0-9.3-3.8-9.3-9.4v-0.1c0-5.2,3.7-9.4,8.8-9.4c5.8,0,8.6,4.7,8.6,8.9c0,1.2-0.9,2-2,2H84.6
				c0.4,3,2.5,4.6,5.2,4.6c1.7,0,3.1-0.6,4.3-1.6c0.3-0.2,0.6-0.4,1.1-0.4c0.9,0,1.6,0.7,1.6,1.7c0,0.5-0.2,1-0.5,1.3
				C94.6,88.9,92.5,89.9,89.7,89.9z M93.8,79.1c-0.3-2.7-1.9-4.8-4.6-4.8c-2.5,0-4.3,2-4.7,4.8H93.8z"/>
			<path d="M101.1,77.5L101.1,77.5c0-6.6,4.8-12.5,12.1-12.5c7.3,0,12,5.8,12,12.3v0.1c0,6.6-4.8,12.4-12.1,12.4
				C105.9,89.9,101.1,84.1,101.1,77.5z M123.4,77.5L123.4,77.5c0-6-4.3-10.9-10.3-10.9c-5.9,0-10.2,4.8-10.2,10.7v0.1
				c0,5.9,4.3,10.8,10.3,10.8C119.2,88.2,123.4,83.4,123.4,77.5z"/>
			<path d="M129.3,72.7c0-0.5,0.3-0.9,0.8-0.9c0.5,0,0.9,0.3,0.9,0.9v2.5c1.2-2.1,3.1-3.7,6.3-3.7c4.4,0,7,3,7,7.2v10
				c0,0.5-0.3,0.9-0.8,0.9c-0.5,0-0.9-0.3-0.9-0.9v-9.7c0-3.6-2-6-5.6-6c-3.4,0-6.1,2.6-6.1,6.2v9.4c0,0.5-0.3,0.9-0.8,0.9
				c-0.5,0-0.9-0.3-0.9-0.9V72.7z"/>
			<path d="M156.5,89.9c-4.6,0-8.6-3.7-8.6-9.1v-0.1c0-5.1,3.6-9.1,8.3-9.1c4.9,0,8,4,8,9.1c0,0.4-0.4,0.8-0.8,0.8h-13.7
				c0.3,4.4,3.4,6.9,6.9,6.9c2.5,0,4.3-1,5.7-2.4c0.1-0.1,0.3-0.2,0.5-0.2c0.4,0,0.8,0.3,0.8,0.8c0,0.2-0.1,0.4-0.3,0.6
				C161.6,88.7,159.6,89.9,156.5,89.9z M162.4,79.9c-0.2-3.5-2.3-6.8-6.3-6.8c-3.5,0-6.1,2.9-6.4,6.8H162.4z"/>
		</g>
	</g>
</g>
<g>
	<path fill="#010101" d="M165.4,70h-0.8v2.2h-0.6V70h-0.8v-0.4h2.1L165.4,70L165.4,70z M167.4,71.5l0.7-1.8h0.8v2.6h-0.5v-2.1l0,0
		l-0.8,2.1h-0.4l-0.8-2.1l0,0v2.1H166v-2.6h0.8L167.4,71.5z"/>
</g>
</svg>
