<?xml version="1.0" encoding="utf-8"?>
<!-- Generator: Adobe Illustrator 18.0.0, SVG Export Plug-In . SVG Version: 6.00 Build 0)  -->
<!DOCTYPE svg PUBLIC "-//W3C//DTD SVG 1.1//EN" "http://www.w3.org/Graphics/SVG/1.1/DTD/svg11.dtd">
<svg version="1.1" id="Layer_1" xmlns="http://www.w3.org/2000/svg" xmlns:xlink="http://www.w3.org/1999/xlink" x="0px" y="0px"
	 viewBox="-8 319.1 625 153.7" enable-background="new -8 319.1 625 153.7" xml:space="preserve">
<g>
	
		<linearGradient id="SVGID_1_" gradientUnits="userSpaceOnUse" x1="-468.2668" y1="746.4207" x2="-459.8665" y2="743.3633" gradientTransform="matrix(17.3212 0 0 -17.3212 8118.4165 13292.9688)">
		<stop  offset="6.100000e-03" style="stop-color:#66C9D8"/>
		<stop  offset="0.1394" style="stop-color:#51C5DA"/>
		<stop  offset="0.6545" style="stop-color:#1068B2"/>
		<stop  offset="1" style="stop-color:#16254C"/>
	</linearGradient>
	<path fill="url(#SVGID_1_)" d="M107.8,372.7c-67.1-24.7-59.7-41-50.9-48.4c1.8-0.7,3.5-1.4,5.3-2.1c-1.1,0-1.8,0-2.8,0l0,0
		c1.1,0,1.8,0,2.8,0c-0.4,0-1.1-0.4-1.8-0.4l0.4-0.4c0,0-0.4,0-0.7,0.4c-3.5-0.4-11,0.4-24.7,8.8l-1.8,1.4c-4.9,3.5-7.8,6.4-11,9.2
		c-1.4,1.4-2.8,3.2-4.2,4.6c-27.9,34.3-22.6,84.5,84.5,113.8c7.4,2.1,7.4,2.1,8.5,3.5c4.6-2.1,6-2.8,9.5-4.9
		c4.2-3.5-0.4-5.3-15.9-10.6c-20.1-7.1-50.5-17.7-73.5-38.9c-47-43.1-1.4-82.7,27.6-85.9l0,0c-38.9,4.6-96.1,68.2,47,120.1
		c17.7,6.4,23.7,8.5,17.7,13.4v-0.4c4.2-2.8,7.8-6,10.6-8.5c7.4-7.4-2.1-12-17.7-18c-15.2-6-40.6-15.9-61.8-30.4
		c-51.2-35-29-66.8,1.8-75.3c-0.7,0.4-1.4,0.7-2.1,1.1c-23.3,9.5-69.6,44.9,62.5,98.2c19.1,7.8,27.6,12.4,20.8,20.8
		c1.8-2.1,3.9-4.9,5.7-7.1c1.4-1.8,2.8-4.6,4.2-6.4c1.1-2.1,4.6-8.5-6-15.2c-17.3-11.7-37.8-17-56.2-26.1
		C35.3,364.9,32.2,343,47,330.6c-11,11-13.8,31.4,61.1,61.5c36.7,14.5,45.6,21.6,41.3,32.2c1.8-3.5,1.8-3.5,4.2-11
		c0.7-2.1,1.1-4.6,1.8-6.7C158.3,392.5,130.4,381.2,107.8,372.7z M58.7,323.2c1.1-0.4,2.1-0.4,3.2-0.7c-1.1,0.4-2.1,0.7-3.5,1.1
		C58.3,323.6,58.7,323.6,58.7,323.2z"/>
	
		<linearGradient id="SVGID_2_" gradientUnits="userSpaceOnUse" x1="-468.992" y1="744.6054" x2="-461.9524" y2="742.0432" gradientTransform="matrix(17.3212 0 0 -17.3212 8118.4165 13292.9688)">
		<stop  offset="6.100000e-03" style="stop-color:#66C9D8"/>
		<stop  offset="0.1394" style="stop-color:#51C5DA"/>
		<stop  offset="0.6545" style="stop-color:#1068B2"/>
		<stop  offset="1" style="stop-color:#16254C"/>
	</linearGradient>
	<path fill="url(#SVGID_2_)" d="M101.1,462.4C23,444.1-12.7,404.8,8.5,360.3l-1.1,2.1c-2.1,4.2-2.1,4.6-4.6,11.7
		c-1.4,4.2-1.4,4.6-2.5,12.4c0,2.5-0.4,6-0.4,8.8c2.5,61.8,93.6,73.1,100,72.1c0.7-0.4,2.1-0.7,2.8-0.7c1.4-0.4,1.4-0.4,3.9-1.4
		l1.4-0.4C107.8,463.8,107.8,463.8,101.1,462.4z"/>
	
		<linearGradient id="SVGID_3_" gradientUnits="userSpaceOnUse" x1="-469.0266" y1="742.9301" x2="-462.9673" y2="740.7247" gradientTransform="matrix(17.3212 0 0 -17.3212 8118.4165 13292.9688)">
		<stop  offset="6.100000e-03" style="stop-color:#66C9D8"/>
		<stop  offset="0.1394" style="stop-color:#51C5DA"/>
		<stop  offset="0.6545" style="stop-color:#1068B2"/>
		<stop  offset="1" style="stop-color:#16254C"/>
	</linearGradient>
	<path fill="url(#SVGID_3_)" d="M1.1,406.6l1.1,5.3c11.3,41.7,51.6,65.7,94,56.2l1.4-0.4C92.2,469.1,12.7,463.1,1.1,406.6z"/>
</g>
<path fill="#231F20" d="M175.6,402.4L175.6,402.4c0-17.7,13.4-32.5,32.2-32.5c9.5,0,15.5,2.1,21.6,6.4c1.1,0.7,2.1,2.5,2.1,4.6
	c0,2.8-2.5,5.3-5.3,5.3c-1.4,0-2.5-0.7-3.5-1.4c-3.9-2.8-8.5-4.9-15.2-4.9c-11.7,0-20.5,10.2-20.5,22.3l0,0
	c0,12.7,8.5,22.3,21.2,22.3c6,0,11.3-1.8,15.2-4.6V408h-12.4c-2.8,0-4.9-2.1-4.9-4.6c0-2.8,2.1-4.9,4.9-4.9h17.3
	c3.2,0,5.7,2.5,5.7,5.7v16.6c0,3.2-1.4,5.3-3.9,7.1c-5.3,3.5-13.1,6.7-22.3,6.7C188.3,434.5,175.6,420.7,175.6,402.4z"/>
<path fill="#231F20" d="M245.6,373c0-2.8,2.5-5.3,5.3-5.3c3.2,0,5.3,2.5,5.3,5.3v55.5c0,3.2-2.5,5.3-5.3,5.3c-2.8,0-5.3-2.5-5.3-5.3
	V373L245.6,373z"/>
<path fill="#231F20" d="M265.7,410.1L265.7,410.1c0-13.8,10.6-24.7,25.1-24.7c14.5,0,25.1,11,25.1,24.4l0,0
	c0,13.4-10.6,24.7-25.4,24.7C276.3,434.5,265.7,423.6,265.7,410.1z M305.3,410.1L305.3,410.1c0-8.5-6-15.5-14.5-15.5
	c-8.8,0-14.1,6.7-14.1,15.2l0,0c0,8.1,6,15.2,14.5,15.2S305.3,418.3,305.3,410.1z"/>
<path fill="#231F20" d="M325.1,373c0-3.2,2.5-5.3,5.3-5.3c2.8,0,5.3,2.5,5.3,5.3v21.2c3.5-4.9,8.5-8.8,16.3-8.8
	c11,0,21.9,8.8,21.9,24.4l0,0c0,15.5-10.6,24.4-21.9,24.4c-7.8,0-12.7-3.9-16.3-8.5v2.5c0,2.8-2.5,5.3-5.3,5.3
	c-2.8,0-5.3-2.5-5.3-5.3V373z M362.9,410.1L362.9,410.1c0-9.2-6-15.2-13.4-15.2c-7.4,0-13.8,6-13.8,15.2l0,0
	c0,9.2,6.4,15.2,13.8,15.2C356.9,425,362.9,419.3,362.9,410.1z"/>
<path fill="#231F20" d="M405.3,434.5c-13.8,0-24.4-9.9-24.4-24.4v-0.4c0-13.4,9.5-24.7,23-24.7c15.2,0,22.6,12.4,22.6,23.3
	c0,3.2-2.5,5.3-4.9,5.3h-29.7c1.1,7.8,6.7,12,13.8,12c4.6,0,8.1-1.8,11.3-4.2c0.7-0.7,1.4-1.1,2.8-1.1c2.5,0,4.2,1.8,4.2,4.2
	c0,1.4-0.7,2.5-1.4,3.2C418,432,412.7,434.5,405.3,434.5z M416.2,406.6c-0.7-7.1-4.9-12.4-12-12.4c-6.7,0-11.3,4.9-12.4,12.4H416.2z
	"/>
<path fill="#231F20" d="M435.3,402.4L435.3,402.4c0-17.3,12.7-32.5,31.4-32.5c19.1,0,31.4,15.2,31.4,32.2l0,0
	c0,17-12.7,32.5-31.4,32.5C447.7,434.5,435.3,419.3,435.3,402.4z M493.6,402.4L493.6,402.4c0-15.5-11.3-28.3-26.9-28.3
	s-26.5,12.4-26.5,27.9l0,0c0,15.5,11.3,28.3,26.9,28.3C482.3,430.3,493.6,417.9,493.6,402.4z"/>
<path fill="#231F20" d="M508.8,389.6c0-1.4,1.1-2.1,2.1-2.1c1.1,0,2.1,1.1,2.1,2.1v6.7c3.2-5.3,8.1-9.5,16.6-9.5
	c11.7,0,18.4,7.8,18.4,18.7v26.1c0,1.4-1.1,2.1-2.1,2.1c-1.4,0-2.1-1.1-2.1-2.1v-25.1c0-9.5-5.3-15.5-14.5-15.5
	c-8.8,0-15.9,6.7-15.9,16.3v24.4c0,1.4-1.1,2.1-2.1,2.1c-1.4,0-2.1-1.1-2.1-2.1L508.8,389.6L508.8,389.6z"/>
<path fill="#231F20" d="M579.8,434.5c-12,0-22.3-9.5-22.3-23.7v-0.4c0-13.4,9.2-23.7,21.6-23.7c12.7,0,20.8,10.6,20.8,23.7
	c0,1.1-1.1,2.1-2.1,2.1h-36c0.7,11.3,8.8,18,18,18c6.7,0,11-2.8,14.8-6.4c0.4-0.4,0.7-0.7,1.4-0.7c1.1,0,2.1,1.1,2.1,2.1
	c0,0.4-0.4,1.1-0.7,1.4C592.9,431.7,588,434.5,579.8,434.5z M595,408.4c-0.7-9.2-6-17.7-16.3-17.7c-9.2,0-15.9,7.8-17,17.7H595z"/>
<text transform="matrix(1 0 0 1 597.1953 385.7187)" font-family="'Helvetica'" font-size="23.4493">®</text>
</svg>
